/* XPM */
static char *Hero1[] = {
/* columns rows colors chars-per-pixel */
"32 32 3 1 ",
"  c black",
". c white",
"X c None",
/* pixels */
"XXXXXXXXXXXXXXXXXXXXXXXXXXXXXXXX",
"XXXXXXXXXXXXXXXXXXXXXXXXXXXXXXXX",
"XXXXXXXXXXXXXXXXXXXXXXXXXXXXXXXX",
"XXXXXXXXXXXXXXXXXXXXXXXXXXXXXXXX",
"XXXXXXXXXXXXXX     XXXXXXXXXXXXX",
"XXXXXXXXXXXX        XXXXXXXXXXXX",
"XXXXXXXXXXX          XX   XXXXXX",
"XXXXXXXXXXX  ... ..  XX .. XXXXX",
"XXXXXXXXXXX  ......  XX  .. XXXX",
"XXXXXXXXXXX ...  ... XX   .. XXX",
"XXXXXXXXXX .        . X    . XXX",
"XXXXXXXXXX ..  ..  .. X    . XXX",
"XXXXXXXX    ...  ...       . XXX",
"XXXXXXX      . .. .        . XXX",
"XX          ...  ...       . XXX",
"XX ......   ........   ...... XX",
"XX ...  .     ....            XX",
"XX ...  .              .. .. XXX",
"XX ...  .              .. .. XXX",
"XX ...  .                 .. XXX",
"XXX .. .                 .. XXXX",
"XXXX ..   ...      ...     XXXXX",
"XXXXX    .   .    .   .  XXXXXXX",
"XXXXXXXX .....    ..... XXXXXXXX",
"XXXXXXXXX     XXXX     XXXXXXXXX",
"XXXXXXXXXXXXXXXXXXXXXXXXXXXXXXXX",
"XXXXXXXXXXXXXXXXXXXXXXXXXXXXXXXX",
"XXXXXXXXXXXXXXXXXXXXXXXXXXXXXXXX",
"XXXXXXXXXXXXXXXXXXXXXXXXXXXXXXXX",
"XXXXXXXXXXXXXXXXXXXXXXXXXXXXXXXX",
"XXXXXXXXXXXXXXXXXXXXXXXXXXXXXXXX",
"XXXXXXXXXXXXXXXXXXXXXXXXXXXXXXXX"
};
