/* XPM */
static char *Heroine_outline1[] = {
/* columns rows colors chars-per-pixel */
"32 32 3 1 ",
"  c black",
". c white",
"X c None",
/* pixels */
"XXXXXXXXXXXXXXXXXXXXXXXXXXXXXXXX",
"XXXXXXXXXXXXXXXXXXXXXXXXXXXXXXXX",
"XXXXXXXXXXXXXXXXXXXXXXXXXXXXXXXX",
"XXXXXXXXXXX...XXXX...XXXXXXXXXXX",
"XXXXXXXXXX.   ....   .XXXXXXXXXX",
"XXXXXXXXX.            ....XXXXXX",
"XXXXXXXX.                 .XXXXX",
"XXXXXXXX.      ..       .. .XXXX",
"XXXXXXXX.    ......      .. .XXX",
"XXXXXXXXX.  ...  ...  .   .. .XX",
"XXXXXXXXX. .        . .    . .XX",
"XXXXXXXX.. ..  ..  .. .    . .XX",
"XXXXXXX.    ...  ...       . .XX",
"XX.....     .. .. ..       . .XX",
"X.           ..  ..        . .XX",
"X. ......     ....     ...... .X",
"X. ...  .                     .X",
"X. ...  .              .. .. .XX",
"X. ...  .              .. .. .XX",
"X. ...  .                 .. .XX",
"XX. .. .                 .. .XXX",
"XXX. ..   ...      ...     .XXXX",
"XXXX.    .   .    .   .  ..XXXXX",
"XXXXX... .....    ..... .XXXXXXX",
"XXXXXXXX.     ....     .XXXXXXXX",
"XXXXXXXXX.....XXXX.....XXXXXXXXX",
"XXXXXXXXXXXXXXXXXXXXXXXXXXXXXXXX",
"XXXXXXXXXXXXXXXXXXXXXXXXXXXXXXXX",
"XXXXXXXXXXXXXXXXXXXXXXXXXXXXXXXX",
"XXXXXXXXXXXXXXXXXXXXXXXXXXXXXXXX",
"XXXXXXXXXXXXXXXXXXXXXXXXXXXXXXXX",
"XXXXXXXXXXXXXXXXXXXXXXXXXXXXXXXX"
};
