/* XPM */
static char *Hero4[] = {
/* columns rows colors chars-per-pixel */
"32 32 3 1 ",
"  c black",
". c white",
"X c None",
/* pixels */
"XXXXXXXXXXXXXXXXXXXXXXXXXXXXXXXX",
"XXXXXXXXXXXXXXXXXXXXXXXXXXXXXXXX",
"XXXXXXXXXXXXXXXXXXXXXXXXXXXXXXXX",
"XXXXXXXXXXXXXXXXXXXXXXXXXXXXXXXX",
"XXXXXXXXXXXXXXXXXXXXXXXXXXXXXXXX",
"XXXXXXXXXXXXXXXXXXXXXXXXXXXXXXXX",
"XXXXXXXXXXXXXXXXXXXXXX   XXXXXXX",
"XXXXXXXXXXXX        XX .. XXXXXX",
"XXXXXXXXXXX          X  .. XXXXX",
"XXXXXXXXXXX  ...  .  X   .. XXXX",
"XXXXXXXXXXX  ......  X    . XXXX",
"XXXXXXXXXXX ...  ... X    . XXXX",
"XXXXXXXXXX .        .     . XXXX",
"XXXXXXXX   ..  ..  ..     . XXXX",
"XXX         ...  ...      . XXXX",
"XXX ......   ......   ...... XXX",
"XXX ...  .  ...  ...         XXX",
"XXX ...  .   ......   .. .. XXXX",
"XXX ...  .            .. .. XXXX",
"XXX ...  .               .. XXXX",
"XXXX .. .               .. XXXXX",
"XXXXX ..  ..        ..    XXXXXX",
"XXXXXX   .            . XXXXXXXX",
"XXXXXXXX .....    ..... XXXXXXXX",
"XXXXXXXXX     XXXX     XXXXXXXXX",
"XXXXXXXXXXXXXXXXXXXXXXXXXXXXXXXX",
"XXXXXXXXXXXXXXXXXXXXXXXXXXXXXXXX",
"XXXXXXXXXXXXXXXXXXXXXXXXXXXXXXXX",
"XXXXXXXXXXXXXXXXXXXXXXXXXXXXXXXX",
"XXXXXXXXXXXXXXXXXXXXXXXXXXXXXXXX",
"XXXXXXXXXXXXXXXXXXXXXXXXXXXXXXXX",
"XXXXXXXXXXXXXXXXXXXXXXXXXXXXXXXX"
};
