/* XPM */
static char *Heroine_outline3[] = {
/* columns rows colors chars-per-pixel */
"32 32 3 1 ",
"  c black",
". c white",
"X c None",
/* pixels */
"XXXXXXXXXXXXXXXXXXXXXXXXXXXXXXXX",
"XXXXXXXXXXXXXXXXXXXXXXXXXXXXXXXX",
"XXXXXXXXXXXXXXXXXXXXXXXXXXXXXXXX",
"XXXXXXXXXXXXXXXXXXXXXXXXXXXXXXXX",
"XXXXXXXXXXX....XX....XXXXXXXXXXX",
"XXXXXXXXXX.    ..    ...XXXXXXXX",
"XXXXXXXXX.              .XXXXXXX",
"XXXXXXXX.              . .XXXXXX",
"XXXXXXXX.      ..      .. .XXXXX",
"XXXXXXXXX.   ......     .. .XXXX",
"XXXXXXXXX.  ...  ...     . .XXXX",
"XXXXXXXXX. .        .    . .XXXX",
"XXXXXXXXX. ..  ..  ..    . .XXXX",
"XXXX.....   ...  ...     . .XXXX",
"XXX.        .. .. ..     . .XXXX",
"XXX. ......  .    .  ...... .XXX",
"XXX. ...  .  .    .         .XXX",
"XXX. ...  .   ....   .. .. .XXXX",
"XXX. ...  .          .. .. .XXXX",
"XXX. ...  .             .. .XXXX",
"XXXX. .. .             .. .XXXXX",
"XXXXX. .. .          .   .XXXXXX",
"XXXXXX.  .            . .XXXXXXX",
"XXXXXXX. ....      .... .XXXXXXX",
"XXXXXXXX.              .XXXXXXXX",
"XXXXXXXXX..............XXXXXXXXX",
"XXXXXXXXXXXXXXXXXXXXXXXXXXXXXXXX",
"XXXXXXXXXXXXXXXXXXXXXXXXXXXXXXXX",
"XXXXXXXXXXXXXXXXXXXXXXXXXXXXXXXX",
"XXXXXXXXXXXXXXXXXXXXXXXXXXXXXXXX",
"XXXXXXXXXXXXXXXXXXXXXXXXXXXXXXXX",
"XXXXXXXXXXXXXXXXXXXXXXXXXXXXXXXX"
};
