/* XPM */
static char *Hero3[] = {
/* columns rows colors chars-per-pixel */
"32 32 3 1 ",
"  c black",
". c white",
"X c None",
/* pixels */
"XXXXXXXXXXXXXXXXXXXXXXXXXXXXXXXX",
"XXXXXXXXXXXXXXXXXXXXXXXXXXXXXXXX",
"XXXXXXXXXXXXXXXXXXXXXXXXXXXXXXXX",
"XXXXXXXXXXXXXXXXXXXXXXXXXXXXXXXX",
"XXXXXXXXXXXXXXXXXXXXXXXXXXXXXXXX",
"XXXXXXXXXXXXXXX   XXXXXXXXXXXXXX",
"XXXXXXXXXXXX        X   XXXXXXXX",
"XXXXXXXXXXX           .. XXXXXXX",
"XXXXXXXXXXX  ...  .    .. XXXXXX",
"XXXXXXXXXXX  ......     .. XXXXX",
"XXXXXXXXXXX ...  ...     . XXXXX",
"XXXXXXXXXX .        .    . XXXXX",
"XXXXXXXXXX ..  ..  ..    . XXXXX",
"XXXXXXXXX   ...  ...     . XXXXX",
"XXXX         . .. .      . XXXXX",
"XXXX ...... ..    .. ...... XXXX",
"XXXX ...  . ..    ..        XXXX",
"XXXX ...  . ..    .. .. .. XXXXX",
"XXXX ...  .  ......  .. .. XXXXX",
"XXXX ...  .             .. XXXXX",
"XXXXX .. .             .. XXXXXX",
"XXXXXX .. .          .   XXXXXXX",
"XXXXXXX  .            . XXXXXXXX",
"XXXXXXXX ....      .... XXXXXXXX",
"XXXXXXXXX              XXXXXXXXX",
"XXXXXXXXXXXXXXXXXXXXXXXXXXXXXXXX",
"XXXXXXXXXXXXXXXXXXXXXXXXXXXXXXXX",
"XXXXXXXXXXXXXXXXXXXXXXXXXXXXXXXX",
"XXXXXXXXXXXXXXXXXXXXXXXXXXXXXXXX",
"XXXXXXXXXXXXXXXXXXXXXXXXXXXXXXXX",
"XXXXXXXXXXXXXXXXXXXXXXXXXXXXXXXX",
"XXXXXXXXXXXXXXXXXXXXXXXXXXXXXXXX"
};
