/* XPM */
static char *Hero_outline4[] = {
/* columns rows colors chars-per-pixel */
"32 32 3 1 ",
"  c black",
". c white",
"X c None",
/* pixels */
"XXXXXXXXXXXXXXXXXXXXXXXXXXXXXXXX",
"XXXXXXXXXXXXXXXXXXXXXXXXXXXXXXXX",
"XXXXXXXXXXXXXXXXXXXXXXXXXXXXXXXX",
"XXXXXXXXXXXXXXXXXXXXXXXXXXXXXXXX",
"XXXXXXXXXXXXXXXXXXXXXXXXXXXXXXXX",
"XXXXXXXXXXXXXXXXXXXXXX...XXXXXXX",
"XXXXXXXXXXXX........X.   .XXXXXX",
"XXXXXXXXXXX.        .. .. .XXXXX",
"XXXXXXXXXX.          .  .. .XXXX",
"XXXXXXXXXX.  ...  .  .   .. .XXX",
"XXXXXXXXXX.  ......  .    . .XXX",
"XXXXXXXXXX. ...  ... .    . .XXX",
"XXXXXXXX.. .        .     . .XXX",
"XXX.....   ..  ..  ..     . .XXX",
"XX.         ...  ...      . .XXX",
"XX. ......   ......   ...... .XX",
"XX. ...  .  ...  ...         .XX",
"XX. ...  .   ......   .. .. .XXX",
"XX. ...  .            .. .. .XXX",
"XX. ...  .               .. .XXX",
"XXX. .. .               .. .XXXX",
"XXXX. ..  ..        ..    .XXXXX",
"XXXXX.   .            . ..XXXXXX",
"XXXXXX.. .....    ..... .XXXXXXX",
"XXXXXXXX.     ....     .XXXXXXXX",
"XXXXXXXXX.....XXXX.....XXXXXXXXX",
"XXXXXXXXXXXXXXXXXXXXXXXXXXXXXXXX",
"XXXXXXXXXXXXXXXXXXXXXXXXXXXXXXXX",
"XXXXXXXXXXXXXXXXXXXXXXXXXXXXXXXX",
"XXXXXXXXXXXXXXXXXXXXXXXXXXXXXXXX",
"XXXXXXXXXXXXXXXXXXXXXXXXXXXXXXXX",
"XXXXXXXXXXXXXXXXXXXXXXXXXXXXXXXX"
};
