/* XPM */
static char *Heroine3[] = {
/* columns rows colors chars-per-pixel */
"32 32 3 1 ",
"  c black",
". c white",
"X c None",
/* pixels */
"XXXXXXXXXXXXXXXXXXXXXXXXXXXXXXXX",
"XXXXXXXXXXXXXXXXXXXXXXXXXXXXXXXX",
"XXXXXXXXXXXXXXXXXXXXXXXXXXXXXXXX",
"XXXXXXXXXXXXXXXXXXXXXXXXXXXXXXXX",
"XXXXXXXXXXXXXXXXXXXXXXXXXXXXXXXX",
"XXXXXXXXXXX    XX    XXXXXXXXXXX",
"XXXXXXXXXX              XXXXXXXX",
"XXXXXXXXX              . XXXXXXX",
"XXXXXXXXX      ..      .. XXXXXX",
"XXXXXXXXXX   ......     .. XXXXX",
"XXXXXXXXXX  ...  ...     . XXXXX",
"XXXXXXXXXX .        .    . XXXXX",
"XXXXXXXXXX ..  ..  ..    . XXXXX",
"XXXXXXXXX   ...  ...     . XXXXX",
"XXXX        .. .. ..     . XXXXX",
"XXXX ......  .    .  ...... XXXX",
"XXXX ...  .  .    .         XXXX",
"XXXX ...  .   ....   .. .. XXXXX",
"XXXX ...  .          .. .. XXXXX",
"XXXX ...  .             .. XXXXX",
"XXXXX .. .             .. XXXXXX",
"XXXXXX .. .          .   XXXXXXX",
"XXXXXXX  .            . XXXXXXXX",
"XXXXXXXX ....      .... XXXXXXXX",
"XXXXXXXXX              XXXXXXXXX",
"XXXXXXXXXXXXXXXXXXXXXXXXXXXXXXXX",
"XXXXXXXXXXXXXXXXXXXXXXXXXXXXXXXX",
"XXXXXXXXXXXXXXXXXXXXXXXXXXXXXXXX",
"XXXXXXXXXXXXXXXXXXXXXXXXXXXXXXXX",
"XXXXXXXXXXXXXXXXXXXXXXXXXXXXXXXX",
"XXXXXXXXXXXXXXXXXXXXXXXXXXXXXXXX",
"XXXXXXXXXXXXXXXXXXXXXXXXXXXXXXXX"
};
