/* XPM */
static char *Pumpkin3[] = {
/* columns rows colors chars-per-pixel */
"32 32 3 1 ",
"  c black",
". c white",
"X c None",
/* pixels */
"XXXXXXXXXXXXXXXXXXXXXXXXXXXXXXXX",
"XXXXXXXXXXXXXXXXXXXXXXXXXXXXXXXX",
"XXXXXXXXXXXXXXXXXXXXXXXXXXXXXXXX",
"XXXXXXXXXXXXXXXXXXXXXXXXXXXXXXXX",
"XXXXXXXXXXXXXXXXXXXXXXXXXXXXXXXX",
"XXXXXXXXXXXXXXXXXXXXXXXXXXXXXXXX",
"XXXXXXXXXXXX  X  X  XXXXXXXXXXXX",
"XXXXXXXXXXX .. .. .. XXXXXXXXXXX",
"XXXXXXXXXX .  ....  . XXXXXXXXXX",
"XXXXXXXXXX .   ..   . XXXXXXXXXX",
"XXXXXXXXXX .   ..   . XXXXXXXXXX",
"XXXXXXXXXX .   ..   . XXXXXXXXXX",
"XXXXXXXX X ..  ..  .. X XXXXXXXX",
"XXXXXX X  . ...  ... .  X XXXXXX",
"XXXXXX    . . .... . .    XXXXXX",
"XXXXXX    .   .  .   .    XXXXXX",
"XXXXX     .          .     XXXXX",
"XXXXX      .        .      XXXXX",
"XXXXX ...  .        .  ... XXXXX",
"XXXX ... . .. .  . .. . ... XXXX",
"XXXX . .     ......     . . XXXX",
"XXXXX                      XXXXX",
"XXXXXXX   .          .   XXXXXXX",
"XXXXXXX  . .        . .  XXXXXXX",
"XXXXXXXXX              XXXXXXXXX",
"XXXXXXXXXXXXXXXXXXXXXXXXXXXXXXXX",
"XXXXXXXXXXXXXXXXXXXXXXXXXXXXXXXX",
"XXXXXXXXXXXXXXXXXXXXXXXXXXXXXXXX",
"XXXXXXXXXXXXXXXXXXXXXXXXXXXXXXXX",
"XXXXXXXXXXXXXXXXXXXXXXXXXXXXXXXX",
"XXXXXXXXXXXXXXXXXXXXXXXXXXXXXXXX",
"XXXXXXXXXXXXXXXXXXXXXXXXXXXXXXXX"
};
