/* XPM */
static char *Pumpkin_outline3[] = {
/* columns rows colors chars-per-pixel */
"32 32 3 1 ",
"  c black",
". c white",
"X c None",
/* pixels */
"XXXXXXXXXXXXXXXXXXXXXXXXXXXXXXXX",
"XXXXXXXXXXXXXXXXXXXXXXXXXXXXXXXX",
"XXXXXXXXXXXXXXXXXXXXXXXXXXXXXXXX",
"XXXXXXXXXXXXXXXXXXXXXXXXXXXXXXXX",
"XXXXXXXXXXXXXXXXXXXXXXXXXXXXXXXX",
"XXXXXXXXXXXX..X..X..XXXXXXXXXXXX",
"XXXXXXXXXXX.  .  .  .XXXXXXXXXXX",
"XXXXXXXXXX. .. .. .. .XXXXXXXXXX",
"XXXXXXXXX. .  ....  . .XXXXXXXXX",
"XXXXXXXXX. .   ..   . .XXXXXXXXX",
"XXXXXXXXX. .   ..   . .XXXXXXXXX",
"XXXXXXXX.. .   ..   . ..XXXXXXXX",
"XXXXXX.. . ..  ..  .. . ..XXXXXX",
"XXXXX. .  . ...  ... .  . .XXXXX",
"XXXXX.    . . .... . .    .XXXXX",
"XXXXX.    .   .  .   .    .XXXXX",
"XXXX.     .          .     .XXXX",
"XXXX.      .        .      .XXXX",
"XXXX. ...  .        .  ... .XXXX",
"XXX. ... . .. .  . .. . ... .XXX",
"XXX. . .     ......     . . .XXX",
"XXXX.                      .XXXX",
"XXXXX..   .          .   ..XXXXX",
"XXXXXX.  . .        . .  .XXXXXX",
"XXXXXXX..              ..XXXXXXX",
"XXXXXXXXX..............XXXXXXXXX",
"XXXXXXXXXXXXXXXXXXXXXXXXXXXXXXXX",
"XXXXXXXXXXXXXXXXXXXXXXXXXXXXXXXX",
"XXXXXXXXXXXXXXXXXXXXXXXXXXXXXXXX",
"XXXXXXXXXXXXXXXXXXXXXXXXXXXXXXXX",
"XXXXXXXXXXXXXXXXXXXXXXXXXXXXXXXX",
"XXXXXXXXXXXXXXXXXXXXXXXXXXXXXXXX"
};
