/* XPM */
static char *Pumpkin2[] = {
/* columns rows colors chars-per-pixel */
"32 32 3 1 ",
"  c black",
". c white",
"X c None",
/* pixels */
"XXXXXXXXXXXXXXXXXXXXXXXXXXXXXXXX",
"XXXXXXXXXXXXXXXXXXXXXXXXXXXXXXXX",
"XXXXXXXXXXXXXXXXXXXXXXXXXXXXXXXX",
"XXXXXXXXXXXXXXXXXXXXXXXXXXXXXXXX",
"XXXXXXXXXXXXXXXXXXXXXXXXXXXXXXXX",
"XXXXXXXXXXXX  X  X  XXXXXXXXXXXX",
"XXXXXXXXXXX .. .. .. XXXXXXXXXXX",
"XXXXXXXXXX .. .... .. XXXXXXXXXX",
"XXXXXXXXXX .. .... .. XXXXXXXXXX",
"XXXXXXXXXX .  ....  . XXXXXXXXXX",
"XXXXXXXXXX .   ..   . XXXXXXXXXX",
"XXXXXXXX X ..  ..  .. X XXXXXXXX",
"XXXXXX X    ...  ...    X XXXXXX",
"XXXXXX     .  ....  .     XXXXXX",
"XXXXXXX    .  .  .  .    XXXXXXX",
"XXXXXX     .        .     XXXXXX",
"XXXXX       .      .       XXXXX",
"XXXX ...     .    .     ... XXXX",
"XXX ... .     ....     . ... XXX",
"XXX . . .              . . . XXX",
"XXX .                      . XXX",
"XXXX  X   . .      . .   X  XXXX",
"XXXXXXX   ...      ...   XXXXXXX",
"XXXXXX   . . .    . . .   XXXXXX",
"XXXXXXXXX     XXXX     XXXXXXXXX",
"XXXXXXXXXXXXXXXXXXXXXXXXXXXXXXXX",
"XXXXXXXXXXXXXXXXXXXXXXXXXXXXXXXX",
"XXXXXXXXXXXXXXXXXXXXXXXXXXXXXXXX",
"XXXXXXXXXXXXXXXXXXXXXXXXXXXXXXXX",
"XXXXXXXXXXXXXXXXXXXXXXXXXXXXXXXX",
"XXXXXXXXXXXXXXXXXXXXXXXXXXXXXXXX",
"XXXXXXXXXXXXXXXXXXXXXXXXXXXXXXXX"
};
