/* XPM */
static char *Pumpkin4[] = {
/* columns rows colors chars-per-pixel */
"32 32 3 1 ",
"  c black",
". c white",
"X c None",
/* pixels */
"XXXXXXXXXXXXXXXXXXXXXXXXXXXXXXXX",
"XXXXXXXXXXXXXXXXXXXXXXXXXXXXXXXX",
"XXXXXXXXXXXXXXXXXXXXXXXXXXXXXXXX",
"XXXXXXXXXXXXXXXXXXXXXXXXXXXXXXXX",
"XXXXXXXXXXXXXXXXXXXXXXXXXXXXXXXX",
"XXXXXXXXXXXXXXXXXXXXXXXXXXXXXXXX",
"XXXXXXXXXXXXXXXXXXXXXXXXXXXXXXXX",
"XXXXXXXXXXXXXXXXXXXXXXXXXXXXXXXX",
"XXXXXXXXXXXX  X  X  XXXXXXXXXXXX",
"XXXXXXXXXXX .. .. .. XXXXXXXXXXX",
"XXXXXXXXXX .. .... .. XXXXXXXXXX",
"XXXXXXXX X .. .... .. X XXXXXXXX",
"XXXXXXX    .  ....  .    XXXXXXX",
"XXXXX      ..  ..  ..      XXXXX",
"XXXXXX     ....  ....     XXXXXX",
"XXXXXX      ........      XXXXXX",
"XXXXX  ..     ....     ..  XXXXX",
"XXXXX ....            .... XXXXX",
"XXXX ... .            . ... XXXX",
"XXXX . .                . . XXXX",
"XXXX                        XXXX",
"XXXXX     .          .     XXXXX",
"XXXXXX    ..        ..    XXXXXX",
"XXXXXXX  . . .    . . .  XXXXXXX",
"XXXXXXXXX     XXXX     XXXXXXXXX",
"XXXXXXXXXXXXXXXXXXXXXXXXXXXXXXXX",
"XXXXXXXXXXXXXXXXXXXXXXXXXXXXXXXX",
"XXXXXXXXXXXXXXXXXXXXXXXXXXXXXXXX",
"XXXXXXXXXXXXXXXXXXXXXXXXXXXXXXXX",
"XXXXXXXXXXXXXXXXXXXXXXXXXXXXXXXX",
"XXXXXXXXXXXXXXXXXXXXXXXXXXXXXXXX",
"XXXXXXXXXXXXXXXXXXXXXXXXXXXXXXXX"
};
