/* XPM */
static char *Pumpkin_outline1[] = {
/* columns rows colors chars-per-pixel */
"32 32 3 1 ",
"  c black",
". c white",
"X c None",
/* pixels */
"XXXXXXXXXXXXXXXXXXXXXXXXXXXXXXXX",
"XXXXXXXXXXXXXXXXXXXXXXXXXXXXXXXX",
"XXXXXXXXXXXXXXXXXXXXXXXXXXXXXXXX",
"XXXXXXXXXXXXXXXXXXXXXXXXXXXXXXXX",
"XXXXXXXXXXXX..X..X..XXXXXXXXXXXX",
"XXXXXXXXXXX.  .  .  .XXXXXXXXXXX",
"XXXXXXXXXX. .. .. .. .XXXXXXXXXX",
"XXXXXXXXX. .. .... .. .XXXXXXXXX",
"XXXXXXXXX. .. .... .. .XXXXXXXXX",
"XXXXXXX... .  ....  . ...XXXXXXX",
"XXXXXX.  . .   ..   . .  .XXXXXX",
"XXXXXX..   ..  ..  ..   ..XXXXXX",
"XXXXX.      ...  ...      .XXXXX",
"XXXXXX.    .  ....  .    .XXXXXX",
"XXXX..     .        .     ..XXXX",
"XXX.        ..    ..        .XXX",
"XX. ....      ....      .... .XX",
"X. . . ..              .. . . .X",
"X. . .  .              .  . . .X",
"X. .                        . .X",
"XX.  .                    .  .XX",
"XXX..X.   . .      . .   .X..XXX",
"XXXXX.    ...      ...    .XXXXX",
"XXXX.    . . .    . . .    .XXXX",
"XXXXX....     ....     ....XXXXX",
"XXXXXXXXX.....XXXX.....XXXXXXXXX",
"XXXXXXXXXXXXXXXXXXXXXXXXXXXXXXXX",
"XXXXXXXXXXXXXXXXXXXXXXXXXXXXXXXX",
"XXXXXXXXXXXXXXXXXXXXXXXXXXXXXXXX",
"XXXXXXXXXXXXXXXXXXXXXXXXXXXXXXXX",
"XXXXXXXXXXXXXXXXXXXXXXXXXXXXXXXX",
"XXXXXXXXXXXXXXXXXXXXXXXXXXXXXXXX"
};
