/* XPM */
static char *Pumpkin_outline4[] = {
/* columns rows colors chars-per-pixel */
"32 32 3 1 ",
"  c black",
". c white",
"X c None",
/* pixels */
"XXXXXXXXXXXXXXXXXXXXXXXXXXXXXXXX",
"XXXXXXXXXXXXXXXXXXXXXXXXXXXXXXXX",
"XXXXXXXXXXXXXXXXXXXXXXXXXXXXXXXX",
"XXXXXXXXXXXXXXXXXXXXXXXXXXXXXXXX",
"XXXXXXXXXXXXXXXXXXXXXXXXXXXXXXXX",
"XXXXXXXXXXXXXXXXXXXXXXXXXXXXXXXX",
"XXXXXXXXXXXXXXXXXXXXXXXXXXXXXXXX",
"XXXXXXXXXXXX..X..X..XXXXXXXXXXXX",
"XXXXXXXXXXX.  .  .  .XXXXXXXXXXX",
"XXXXXXXXXX. .. .. .. .XXXXXXXXXX",
"XXXXXXXX.. .. .... .. ..XXXXXXXX",
"XXXXXXX. . .. .... .. . .XXXXXXX",
"XXXXX..    .  ....  .    ..XXXXX",
"XXXX.      ..  ..  ..      .XXXX",
"XXXXX.     ....  ....     .XXXXX",
"XXXXX.      ........      .XXXXX",
"XXXX.  ..     ....     ..  .XXXX",
"XXXX. ....            .... .XXXX",
"XXX. ... .            . ... .XXX",
"XXX. . .                . . .XXX",
"XXX.                        .XXX",
"XXXX.     .          .     .XXXX",
"XXXXX.    ..        ..    .XXXXX",
"XXXXXX.  . . .    . . .  .XXXXXX",
"XXXXXXX..     ....     ..XXXXXXX",
"XXXXXXXXX.....XXXX.....XXXXXXXXX",
"XXXXXXXXXXXXXXXXXXXXXXXXXXXXXXXX",
"XXXXXXXXXXXXXXXXXXXXXXXXXXXXXXXX",
"XXXXXXXXXXXXXXXXXXXXXXXXXXXXXXXX",
"XXXXXXXXXXXXXXXXXXXXXXXXXXXXXXXX",
"XXXXXXXXXXXXXXXXXXXXXXXXXXXXXXXX",
"XXXXXXXXXXXXXXXXXXXXXXXXXXXXXXXX"
};
