/* XPM */
static char *Pumpkin1[] = {
/* columns rows colors chars-per-pixel */
"32 32 3 1 ",
"  c black",
". c white",
"X c None",
/* pixels */
"XXXXXXXXXXXXXXXXXXXXXXXXXXXXXXXX",
"XXXXXXXXXXXXXXXXXXXXXXXXXXXXXXXX",
"XXXXXXXXXXXXXXXXXXXXXXXXXXXXXXXX",
"XXXXXXXXXXXXXXXXXXXXXXXXXXXXXXXX",
"XXXXXXXXXXXXXXXXXXXXXXXXXXXXXXXX",
"XXXXXXXXXXXX  X  X  XXXXXXXXXXXX",
"XXXXXXXXXXX .. .. .. XXXXXXXXXXX",
"XXXXXXXXXX .. .... .. XXXXXXXXXX",
"XXXXXXXXXX .. .... .. XXXXXXXXXX",
"XXXXXXXXXX .  ....  . XXXXXXXXXX",
"XXXXXXX  X .   ..   . X  XXXXXXX",
"XXXXXXXX   ..  ..  ..   XXXXXXXX",
"XXXXXX      ...  ...      XXXXXX",
"XXXXXXX    .  ....  .    XXXXXXX",
"XXXXXX     .        .     XXXXXX",
"XXXX        ..    ..        XXXX",
"XXX ....      ....      .... XXX",
"XX . . ..              .. . . XX",
"XX . .  .              .  . . XX",
"XX .                        . XX",
"XXX  X                    X  XXX",
"XXXXXXX   . .      . .   XXXXXXX",
"XXXXXX    ...      ...    XXXXXX",
"XXXXX    . . .    . . .    XXXXX",
"XXXXXXXXX     XXXX     XXXXXXXXX",
"XXXXXXXXXXXXXXXXXXXXXXXXXXXXXXXX",
"XXXXXXXXXXXXXXXXXXXXXXXXXXXXXXXX",
"XXXXXXXXXXXXXXXXXXXXXXXXXXXXXXXX",
"XXXXXXXXXXXXXXXXXXXXXXXXXXXXXXXX",
"XXXXXXXXXXXXXXXXXXXXXXXXXXXXXXXX",
"XXXXXXXXXXXXXXXXXXXXXXXXXXXXXXXX",
"XXXXXXXXXXXXXXXXXXXXXXXXXXXXXXXX"
};
