/* XPM */
static char *Skelet3[] = {
/* columns rows colors chars-per-pixel */
"32 32 3 1 ",
"  c black",
". c white",
"X c None",
/* pixels */
"XXXXXXXXXXXXXXXXXXXXXXXXXXXXXXXX",
"XXXXXXXXXXXXXXXXXXXXXXXXXXXXXXXX",
"XXXXXXXXXXXXXXXXXXXXXXXXXXXXXXXX",
"XXXXXXXXXXXXXXXXXXXXXXXXXXXXXXXX",
"XXXXXXXXXXXXXXXXXXXXXXXXXXXXXXXX",
"XXXXXXXXXXXXXXXXXXXXXXXXXXXXXXXX",
"XXXXXXXXXXXXXXXXXXXXXXXXXXXXXXXX",
"XXXXXXXXXXXXXXXXXXXXXXXXXXXXXXXX",
"XXXXXXXXXXXXXX    XXXXXXXXXXXXXX",
"XXXXXXXXXXXX  ....  XXXXXXXXXXXX",
"XXXXXXXXXXX ........ XXXXXXXXXXX",
"XXXXXXXXXX ..  ..  .. XXXXXXXXXX",
"XXXXXXXXXX .   ..   . XXXXXXXXXX",
"XXXXXXXXXX .   ..   . XXXXXXXXXX",
"XXXXXXXXX   ...  ...   XXXXXXXXX",
"XXXXXXXX      ....      XXXXXXXX",
"XXXXXXX      .    .      XXXXXXX",
"XXXXXXX      .    .      XXXXXXX",
"XXXXXXX ..   .    .   .. XXXXXXX",
"XXXXXX .. .  .    .  . .. XXXXXX",
"XXXXXX .      ....      . XXXXXX",
"XXXXXXX                  XXXXXXX",
"XXXXXXXX  .          .  XXXXXXXX",
"XXXXXXXX . .        . . XXXXXXXX",
"XXXXXXXXX              XXXXXXXXX",
"XXXXXXXXXXXXXXXXXXXXXXXXXXXXXXXX",
"XXXXXXXXXXXXXXXXXXXXXXXXXXXXXXXX",
"XXXXXXXXXXXXXXXXXXXXXXXXXXXXXXXX",
"XXXXXXXXXXXXXXXXXXXXXXXXXXXXXXXX",
"XXXXXXXXXXXXXXXXXXXXXXXXXXXXXXXX",
"XXXXXXXXXXXXXXXXXXXXXXXXXXXXXXXX",
"XXXXXXXXXXXXXXXXXXXXXXXXXXXXXXXX"
};
