/* XPM */
static char *Skelet1[] = {
/* columns rows colors chars-per-pixel */
"32 32 3 1 ",
"  c black",
". c white",
"X c None",
/* pixels */
"XXXXXXXXXXXXXXXXXXXXXXXXXXXXXXXX",
"XXXXXXXXXXXXXXXXXXXXXXXXXXXXXXXX",
"XXXXXXXXXXXXXXXXXXXXXXXXXXXXXXXX",
"XXXXXXXXXXXXXXXXXXXXXXXXXXXXXXXX",
"XXXXXXXXXXXXXXXXXXXXXXXXXXXXXXXX",
"XXXXXXXXXXXXXXXXXXXXXXXXXXXXXXXX",
"XXXXXXXXXXXXXXXXXXXXXXXXXXXXXXXX",
"XXXXXXXXXXXXXX    XXXXXXXXXXXXXX",
"XXXXXXXXXXXX  ....  XXXXXXXXXXXX",
"XXXXXXXXXXX ........ XXXXXXXXXXX",
"XXXXXXXXXX .......... XXXXXXXXXX",
"XXXXXXXXXX .  ....  . XXXXXXXXXX",
"XXXXXXXXX  .   ..   .  XXXXXXXXX",
"XXXXXXX     ...  ...     XXXXXXX",
"XXXXXX        ....        XXXXXX",
"XXXXXX       .    .       XXXXXX",
"XXXXX         ....         XXXXX",
"XXXX ...                ... XXXX",
"XXX . . .              . . . XXX",
"XXX .   .              .   . XXX",
"XXXX                        XXXX",
"XXXXXX                    XXXXXX",
"XXXXXX    ...      ...    XXXXXX",
"XXXXXXX  . . .    . . .  XXXXXXX",
"XXXXXXXXX     XXXX     XXXXXXXXX",
"XXXXXXXXXXXXXXXXXXXXXXXXXXXXXXXX",
"XXXXXXXXXXXXXXXXXXXXXXXXXXXXXXXX",
"XXXXXXXXXXXXXXXXXXXXXXXXXXXXXXXX",
"XXXXXXXXXXXXXXXXXXXXXXXXXXXXXXXX",
"XXXXXXXXXXXXXXXXXXXXXXXXXXXXXXXX",
"XXXXXXXXXXXXXXXXXXXXXXXXXXXXXXXX",
"XXXXXXXXXXXXXXXXXXXXXXXXXXXXXXXX"
};
