/* XPM */
static char *Skelet_outline4[] = {
/* columns rows colors chars-per-pixel */
"32 32 3 1 ",
"  c black",
". c white",
"X c None",
/* pixels */
"XXXXXXXXXXXXXXXXXXXXXXXXXXXXXXXX",
"XXXXXXXXXXXXXXXXXXXXXXXXXXXXXXXX",
"XXXXXXXXXXXXXXXXXXXXXXXXXXXXXXXX",
"XXXXXXXXXXXXXXXXXXXXXXXXXXXXXXXX",
"XXXXXXXXXXXXXXXXXXXXXXXXXXXXXXXX",
"XXXXXXXXXXXXXXXXXXXXXXXXXXXXXXXX",
"XXXXXXXXXXXXXXXXXXXXXXXXXXXXXXXX",
"XXXXXXXXXXXXXXXXXXXXXXXXXXXXXXXX",
"XXXXXXXXXXXXXX....XXXXXXXXXXXXXX",
"XXXXXXXXXXXX..    ..XXXXXXXXXXXX",
"XXXXXXXXXXX.  ....  .XXXXXXXXXXX",
"XXXXXXXXXX. ........ .XXXXXXXXXX",
"XXXXXXXX.. .......... ..XXXXXXXX",
"XXXXXXX.   .  ....  .   .XXXXXXX",
"XXXXXX.    ..  ..  ..    .XXXXXX",
"XXXXX.      ...  ...      .XXXXX",
"XXXXX.        ....        .XXXXX",
"XXXX. ...     ....     ... .XXXX",
"XXX. ... .            . ... .XXX",
"XXX. .                    . .XXX",
"XXXX.                      .XXXX",
"XXXXX..                  ..XXXXX",
"XXXXXX.   .          .   .XXXXXX",
"XXXXXXX. . . .    . . . .XXXXXXX",
"XXXXXXXX.     ....     .XXXXXXXX",
"XXXXXXXXX.....XXXX.....XXXXXXXXX",
"XXXXXXXXXXXXXXXXXXXXXXXXXXXXXXXX",
"XXXXXXXXXXXXXXXXXXXXXXXXXXXXXXXX",
"XXXXXXXXXXXXXXXXXXXXXXXXXXXXXXXX",
"XXXXXXXXXXXXXXXXXXXXXXXXXXXXXXXX",
"XXXXXXXXXXXXXXXXXXXXXXXXXXXXXXXX",
"XXXXXXXXXXXXXXXXXXXXXXXXXXXXXXXX"
};
