/* XPM */
static char *SpearSkelet1[] = {
/* columns rows colors chars-per-pixel */
"32 32 3 1 ",
"  c black",
". c white",
"X c None",
/* pixels */
"XXXXXXXXXXXXXXXXXXXXXXXXXXXXXXXX",
"XXXXXXXXXXXXXXXXXXXXXXXXXXXXXXXX",
"XXXXXXXXXXXXXXXXXXXXXXXXXXXXXXXX",
"XXXXXXXXXXXXXXXXXXXXXXXXXXXXXXXX",
"XXXXXXXXXXXXXXXXXXXXXXXXXXXXXXXX",
"XXXXXXXXXXXXXXXXXXXXXXXXXXXXXXXX",
"XXXXXX XXXXXXXXXXXXXXXXXXXXXXXXX",
"XXXXX . XXXXXX    XXXXXXXXXXXXXX",
"XXXX ..  XXX  ....  XXXXXXXXXXXX",
"XXX ...   X ........ XXXXXXXXXXX",
"XXX   .    .......... XXXXXXXXXX",
"XXXXX   XX .  ....  . XXXXXXXXXX",
"XXXXX . X  .   ..   .  XXXXXXXXX",
"XXXXX .     ...  ...     XXXXXXX",
"XXXXX .       ....           XXX",
"XXXXX .      .    .   ...... XXX",
"XXXX          ....    .  ... XXX",
"XXX .. .              .  ... XXX",
"XXX    .              .  ... XXX",
"XXX ..                .  ... XXX",
"XXXX                   . .. XXXX",
"XXXXX .                 .. XXXXX",
"XXXXX .   ...      ...    XXXXXX",
"XXXXX .  . . .    . . .  XXXXXXX",
"XXXXX   X     XXXX     XXXXXXXXX",
"XXXXXXXXXXXXXXXXXXXXXXXXXXXXXXXX",
"XXXXXXXXXXXXXXXXXXXXXXXXXXXXXXXX",
"XXXXXXXXXXXXXXXXXXXXXXXXXXXXXXXX",
"XXXXXXXXXXXXXXXXXXXXXXXXXXXXXXXX",
"XXXXXXXXXXXXXXXXXXXXXXXXXXXXXXXX",
"XXXXXXXXXXXXXXXXXXXXXXXXXXXXXXXX",
"XXXXXXXXXXXXXXXXXXXXXXXXXXXXXXXX"
};
