/* XPM */
static char *SpearSkelet_outline3[] = {
/* columns rows colors chars-per-pixel */
"32 32 3 1 ",
"  c black",
". c white",
"X c None",
/* pixels */
"XXXXXXXXXXXXXXXXXXXXXXXXXXXXXXXX",
"XXXXXXXXXXXXXXXXXXXXXXXXXXXXXXXX",
"XXXXXXXXXXXXXXXXXXXXXXXXXXXXXXXX",
"XXXXXXXXXXXXXXXXXXXXXXXXXXXXXXXX",
"XXXXXXXXXXXXXXXXXXXXXXXXXXXXXXXX",
"XXXXXXXXX.XXXXXXXXXXXXXXXXXXXXXX",
"XXXXXXXX. .XXXXXXXXXXXXXXXXXXXXX",
"XXXXXXX. . .XX....XXXXXXXXXXXXXX",
"XXXXXX. ..  ..    ..XXXXXXXXXXXX",
"XXXXX. ...    ....  .XXXXXXXXXXX",
"XXXXX.   .  ........ .XXXXXXXXXX",
"XXXXXX..   ..  ..  .. .XXXXXXXXX",
"XXXXXXX. . .   ..   . .XXXXXXXXX",
"XXXXXXX. . .   ..   . .XXXXXXXXX",
"XXXXXXX. .  ...  ...   ....XXXXX",
"XXXXXXX. .    ....         .XXXX",
"XXXXXX.      .    . ...... .XXXX",
"XXXXX. .. .  .    . .  ... .XXXX",
"XXXXX.    .  .    . .  ... .XXXX",
"XXXXX. ..    .    . .  ... .XXXX",
"XXXXXX.       ....  .  ... .XXXX",
"XXXXXXX. .           . .. .XXXXX",
"XXXXXXX. .            .. .XXXXXX",
"XXXXXXX. . .        .   .XXXXXXX",
"XXXXXXX.               .XXXXXXXX",
"XXXXXXXX...............XXXXXXXXX",
"XXXXXXXXXXXXXXXXXXXXXXXXXXXXXXXX",
"XXXXXXXXXXXXXXXXXXXXXXXXXXXXXXXX",
"XXXXXXXXXXXXXXXXXXXXXXXXXXXXXXXX",
"XXXXXXXXXXXXXXXXXXXXXXXXXXXXXXXX",
"XXXXXXXXXXXXXXXXXXXXXXXXXXXXXXXX",
"XXXXXXXXXXXXXXXXXXXXXXXXXXXXXXXX"
};
