/* XPM */
static char *SpearSkelet3[] = {
/* columns rows colors chars-per-pixel */
"32 32 3 1 ",
"  c black",
". c white",
"X c None",
/* pixels */
"XXXXXXXXXXXXXXXXXXXXXXXXXXXXXXXX",
"XXXXXXXXXXXXXXXXXXXXXXXXXXXXXXXX",
"XXXXXXXXXXXXXXXXXXXXXXXXXXXXXXXX",
"XXXXXXXXXXXXXXXXXXXXXXXXXXXXXXXX",
"XXXXXXXXXXXXXXXXXXXXXXXXXXXXXXXX",
"XXXXXXXXXXXXXXXXXXXXXXXXXXXXXXXX",
"XXXXXXXXX XXXXXXXXXXXXXXXXXXXXXX",
"XXXXXXXX . XXXXXXXXXXXXXXXXXXXXX",
"XXXXXXX ..  XX    XXXXXXXXXXXXXX",
"XXXXXX ...    ....  XXXXXXXXXXXX",
"XXXXXX   .  ........ XXXXXXXXXXX",
"XXXXXXXX   ..  ..  .. XXXXXXXXXX",
"XXXXXXXX . .   ..   . XXXXXXXXXX",
"XXXXXXXX . .   ..   . XXXXXXXXXX",
"XXXXXXXX .  ...  ...   XXXXXXXXX",
"XXXXXXXX .    ....         XXXXX",
"XXXXXXX      .    . ...... XXXXX",
"XXXXXX .. .  .    . .  ... XXXXX",
"XXXXXX    .  .    . .  ... XXXXX",
"XXXXXX ..    .    . .  ... XXXXX",
"XXXXXXX       ....  .  ... XXXXX",
"XXXXXXXX .           . .. XXXXXX",
"XXXXXXXX .            .. XXXXXXX",
"XXXXXXXX . .        .   XXXXXXXX",
"XXXXXXXX               XXXXXXXXX",
"XXXXXXXXXXXXXXXXXXXXXXXXXXXXXXXX",
"XXXXXXXXXXXXXXXXXXXXXXXXXXXXXXXX",
"XXXXXXXXXXXXXXXXXXXXXXXXXXXXXXXX",
"XXXXXXXXXXXXXXXXXXXXXXXXXXXXXXXX",
"XXXXXXXXXXXXXXXXXXXXXXXXXXXXXXXX",
"XXXXXXXXXXXXXXXXXXXXXXXXXXXXXXXX",
"XXXXXXXXXXXXXXXXXXXXXXXXXXXXXXXX"
};
