/* XPM */
static char *SpearSkelet_outline2[] = {
/* columns rows colors chars-per-pixel */
"32 32 3 1 ",
"  c black",
". c white",
"X c None",
/* pixels */
"XXXXXXXXXXXXXXXXXXXXXXXXXXXXXXXX",
"XXXXXXXXXXXXXXXXXXXXXXXXXXXXXXXX",
"XXXXXXXXXXXXXXXXXXXXXXXXXXXXXXXX",
"XXXXXXXXXXXXXXXXXXXXXXXXXXXXXXXX",
"XXXXXXXXXXXXXXXXXXXXXXXXXXXXXXXX",
"XXXXXXX.XXXXXXXXXXXXXXXXXXXXXXXX",
"XXXXXX. .XXXXX....XXXXXXXXXXXXXX",
"XXXXX. . .XX..    ..XXXXXXXXXXXX",
"XXXX. ..  ..  ....  .XXXXXXXXXXX",
"XXX. ...    ........ .XXXXXXXXXX",
"XXX.   .   .......... .XXXXXXXXX",
"XXXX..   . .  ....  . .XXXXXXXXX",
"XXXXX. . . .   ..   . .XXXXXXXXX",
"XXXXX. .    ...  ...   .....XXXX",
"XXXXX. .      ....          .XXX",
"XXXXX. .     .    .  ...... .XXX",
"XXXX.        .    .  .  ... .XXX",
"XXX. .. .     ....   .  ... .XXX",
"XXX.    .            .  ... .XXX",
"XXX. ..              .  ... .XXX",
"XXXX.                 . .. .XXXX",
"XXXXX. .               .. .XXXXX",
"XXXXX. .  ...      ...   .XXXXXX",
"XXXXX. . . . .    . . . .XXXXXXX",
"XXXXX.        ....     .XXXXXXXX",
"XXXXXX........XXXX.....XXXXXXXXX",
"XXXXXXXXXXXXXXXXXXXXXXXXXXXXXXXX",
"XXXXXXXXXXXXXXXXXXXXXXXXXXXXXXXX",
"XXXXXXXXXXXXXXXXXXXXXXXXXXXXXXXX",
"XXXXXXXXXXXXXXXXXXXXXXXXXXXXXXXX",
"XXXXXXXXXXXXXXXXXXXXXXXXXXXXXXXX",
"XXXXXXXXXXXXXXXXXXXXXXXXXXXXXXXX"
};
