/* XPM */
static char *SpearSkelet_outline4[] = {
/* columns rows colors chars-per-pixel */
"32 32 3 1 ",
"  c black",
". c white",
"X c None",
/* pixels */
"XXXXXXXXXXXXXXXXXXXXXXXXXXXXXXXX",
"XXXXXXXXXXXXXXXXXXXXXXXXXXXXXXXX",
"XXXXXXXXXXXXXXXXXXXXXXXXXXXXXXXX",
"XXXXXXXXXXXXXXXXXXXXXXXXXXXXXXXX",
"XXXXXXXXXXXXXXXXXXXXXXXXXXXXXXXX",
"XXXXXXXX.XXXXXXXXXXXXXXXXXXXXXXX",
"XXXXXXX. .XXXXXXXXXXXXXXXXXXXXXX",
"XXXXXX. . .XXXXXXXXXXXXXXXXXXXXX",
"XXXXX. ..  .XX....XXXXXXXXXXXXXX",
"XXXX. ...   ..    ..XXXXXXXXXXXX",
"XXXX.   .     ....  .XXXXXXXXXXX",
"XXXXX..   . ........ .XXXXXXXXXX",
"XXXXXX. .  .......... ..XXXXXXXX",
"XXXXXX. .  .  ....  .   .XXXXXXX",
"XXXXXX. .  ..  ..  ..    ...XXXX",
"XXXXXX. .   ...  ...        .XXX",
"XXXXX.        ....   ...... .XXX",
"XXXX. .. .    ....   .  ... .XXX",
"XXXX.    .           .  ... .XXX",
"XXXX. ..             .  ... .XXX",
"XXXXX.               .  ... .XXX",
"XXXXXX. .             . .. .XXXX",
"XXXXXX. . .          . .. .XXXXX",
"XXXXXX. .  . .    . . .  .XXXXXX",
"XXXXXX.       ....     ..XXXXXXX",
"XXXXXXX.......XXXX.....XXXXXXXXX",
"XXXXXXXXXXXXXXXXXXXXXXXXXXXXXXXX",
"XXXXXXXXXXXXXXXXXXXXXXXXXXXXXXXX",
"XXXXXXXXXXXXXXXXXXXXXXXXXXXXXXXX",
"XXXXXXXXXXXXXXXXXXXXXXXXXXXXXXXX",
"XXXXXXXXXXXXXXXXXXXXXXXXXXXXXXXX",
"XXXXXXXXXXXXXXXXXXXXXXXXXXXXXXXX"
};
