/* XPM */
static char *SpearSkelet_outline1[] = {
/* columns rows colors chars-per-pixel */
"32 32 3 1 ",
"  c black",
". c white",
"X c None",
/* pixels */
"XXXXXXXXXXXXXXXXXXXXXXXXXXXXXXXX",
"XXXXXXXXXXXXXXXXXXXXXXXXXXXXXXXX",
"XXXXXXXXXXXXXXXXXXXXXXXXXXXXXXXX",
"XXXXXXXXXXXXXXXXXXXXXXXXXXXXXXXX",
"XXXXXXXXXXXXXXXXXXXXXXXXXXXXXXXX",
"XXXXXX.XXXXXXXXXXXXXXXXXXXXXXXXX",
"XXXXX. .XXXXXX....XXXXXXXXXXXXXX",
"XXXX. . .XXX..    ..XXXXXXXXXXXX",
"XXX. ..  .X.  ....  .XXXXXXXXXXX",
"XX. ...   . ........ .XXXXXXXXXX",
"XX.   .    .......... .XXXXXXXXX",
"XXX..   .. .  ....  . .XXXXXXXXX",
"XXXX. . .  .   ..   .  ..XXXXXXX",
"XXXX. .     ...  ...     ....XXX",
"XXXX. .       ....           .XX",
"XXXX. .      .    .   ...... .XX",
"XXX.          ....    .  ... .XX",
"XX. .. .              .  ... .XX",
"XX.    .              .  ... .XX",
"XX. ..                .  ... .XX",
"XXX.                   . .. .XXX",
"XXXX. .                 .. .XXXX",
"XXXX. .   ...      ...    .XXXXX",
"XXXX. .  . . .    . . .  .XXXXXX",
"XXXX.   .     ....     ..XXXXXXX",
"XXXXX...X.....XXXX.....XXXXXXXXX",
"XXXXXXXXXXXXXXXXXXXXXXXXXXXXXXXX",
"XXXXXXXXXXXXXXXXXXXXXXXXXXXXXXXX",
"XXXXXXXXXXXXXXXXXXXXXXXXXXXXXXXX",
"XXXXXXXXXXXXXXXXXXXXXXXXXXXXXXXX",
"XXXXXXXXXXXXXXXXXXXXXXXXXXXXXXXX",
"XXXXXXXXXXXXXXXXXXXXXXXXXXXXXXXX"
};
