/* XPM */
static char *SpearSkelet2[] = {
/* columns rows colors chars-per-pixel */
"32 32 3 1 ",
"  c black",
". c white",
"X c None",
/* pixels */
"XXXXXXXXXXXXXXXXXXXXXXXXXXXXXXXX",
"XXXXXXXXXXXXXXXXXXXXXXXXXXXXXXXX",
"XXXXXXXXXXXXXXXXXXXXXXXXXXXXXXXX",
"XXXXXXXXXXXXXXXXXXXXXXXXXXXXXXXX",
"XXXXXXXXXXXXXXXXXXXXXXXXXXXXXXXX",
"XXXXXXXXXXXXXXXXXXXXXXXXXXXXXXXX",
"XXXXXXX XXXXXXXXXXXXXXXXXXXXXXXX",
"XXXXXX . XXXXX    XXXXXXXXXXXXXX",
"XXXXX ..  XX  ....  XXXXXXXXXXXX",
"XXXX ...    ........ XXXXXXXXXXX",
"XXXX   .   .......... XXXXXXXXXX",
"XXXXXX   X .  ....  . XXXXXXXXXX",
"XXXXXX . X .   ..   . XXXXXXXXXX",
"XXXXXX .    ...  ...   XXXXXXXXX",
"XXXXXX .      ....          XXXX",
"XXXXXX .     .    .  ...... XXXX",
"XXXXX        .    .  .  ... XXXX",
"XXXX .. .     ....   .  ... XXXX",
"XXXX    .            .  ... XXXX",
"XXXX ..              .  ... XXXX",
"XXXXX                 . .. XXXXX",
"XXXXXX .               .. XXXXXX",
"XXXXXX .  ...      ...   XXXXXXX",
"XXXXXX . . . .    . . . XXXXXXXX",
"XXXXXX        XXXX     XXXXXXXXX",
"XXXXXXXXXXXXXXXXXXXXXXXXXXXXXXXX",
"XXXXXXXXXXXXXXXXXXXXXXXXXXXXXXXX",
"XXXXXXXXXXXXXXXXXXXXXXXXXXXXXXXX",
"XXXXXXXXXXXXXXXXXXXXXXXXXXXXXXXX",
"XXXXXXXXXXXXXXXXXXXXXXXXXXXXXXXX",
"XXXXXXXXXXXXXXXXXXXXXXXXXXXXXXXX",
"XXXXXXXXXXXXXXXXXXXXXXXXXXXXXXXX"
};
