/* XPM */
static char *SpearSkelet4[] = {
/* columns rows colors chars-per-pixel */
"32 32 3 1 ",
"  c black",
". c white",
"X c None",
/* pixels */
"XXXXXXXXXXXXXXXXXXXXXXXXXXXXXXXX",
"XXXXXXXXXXXXXXXXXXXXXXXXXXXXXXXX",
"XXXXXXXXXXXXXXXXXXXXXXXXXXXXXXXX",
"XXXXXXXXXXXXXXXXXXXXXXXXXXXXXXXX",
"XXXXXXXXXXXXXXXXXXXXXXXXXXXXXXXX",
"XXXXXXXXXXXXXXXXXXXXXXXXXXXXXXXX",
"XXXXXXXX XXXXXXXXXXXXXXXXXXXXXXX",
"XXXXXXX . XXXXXXXXXXXXXXXXXXXXXX",
"XXXXXX ..  XXXXXXXXXXXXXXXXXXXXX",
"XXXXX ...   XX    XXXXXXXXXXXXXX",
"XXXXX   .     ....  XXXXXXXXXXXX",
"XXXXXXX   X ........ XXXXXXXXXXX",
"XXXXXXX .  .......... XXXXXXXXXX",
"XXXXXXX .  .  ....  .   XXXXXXXX",
"XXXXXXX .  ..  ..  ..    XXXXXXX",
"XXXXXXX .   ...  ...        XXXX",
"XXXXXX        ....   ...... XXXX",
"XXXXX .. .    ....   .  ... XXXX",
"XXXXX    .           .  ... XXXX",
"XXXXX ..             .  ... XXXX",
"XXXXXX               .  ... XXXX",
"XXXXXXX .             . .. XXXXX",
"XXXXXXX . .          . .. XXXXXX",
"XXXXXXX .  . .    . . .  XXXXXXX",
"XXXXXXX       XXXX     XXXXXXXXX",
"XXXXXXXXXXXXXXXXXXXXXXXXXXXXXXXX",
"XXXXXXXXXXXXXXXXXXXXXXXXXXXXXXXX",
"XXXXXXXXXXXXXXXXXXXXXXXXXXXXXXXX",
"XXXXXXXXXXXXXXXXXXXXXXXXXXXXXXXX",
"XXXXXXXXXXXXXXXXXXXXXXXXXXXXXXXX",
"XXXXXXXXXXXXXXXXXXXXXXXXXXXXXXXX",
"XXXXXXXXXXXXXXXXXXXXXXXXXXXXXXXX"
};
