/* XPM */
static char *SwordSkelet2[] = {
/* columns rows colors chars-per-pixel */
"32 32 3 1 ",
"  c black",
". c white",
"X c None",
/* pixels */
"XXXXXXXXXXXXXXXXXXXXXXXXXXXXXXXX",
"XXXXXXXXXXXXXXXXXXXXXXXXXXXXXXXX",
"XXXXXXXXXXXXXXXXXXXXXXXXXXXXXXXX",
"XXXXXXXXXXXXXXXXXXXXXXXXXXXXXXXX",
"XXXXXXXXXXXXXXXXXXXXXXXXXXXXXXXX",
"XXXXXXXXXXXXXXXXXXXXXXXXXXXXXXXX",
"XXXXXXXXXXXXXXXXXXXXXXXXXXXXXXXX",
"XXXXXXXXXXXXXX    XXXXXXXXXXXXXX",
"XXXXXXXXXXXX  ....  XX   XXXXXXX",
"XXXXXXXXXXX ........ X .. XXXXXX",
"XXXXXXXXXX ..........   .. XXXXX",
"XXXXXXXXXX .  ....  .    .. XXXX",
"XXXXXXXXXX .   ..   .     . XXXX",
"XXXXXXXXX   ...  ...      . XXXX",
"XXXX          ....        . XXXX",
"XXXX ......  .    .       . XXXX",
"XXXX ...  .  .    .   ...... XXX",
"XXXX ...  .   ....           XXX",
"XXXX ...  .            . .. XXXX",
"XXXX ...  .            .    XXXX",
"XXXXX .. .               .. XXXX",
"XXXXXX ..                  XXXXX",
"XXXXXXX   ...      ...   XXXXXXX",
"XXXXXXXX . . .    . . . XXXXXXXX",
"XXXXXXXXX     XXXX     XXXXXXXXX",
"XXXXXXXXXXXXXXXXXXXXXXXXXXXXXXXX",
"XXXXXXXXXXXXXXXXXXXXXXXXXXXXXXXX",
"XXXXXXXXXXXXXXXXXXXXXXXXXXXXXXXX",
"XXXXXXXXXXXXXXXXXXXXXXXXXXXXXXXX",
"XXXXXXXXXXXXXXXXXXXXXXXXXXXXXXXX",
"XXXXXXXXXXXXXXXXXXXXXXXXXXXXXXXX",
"XXXXXXXXXXXXXXXXXXXXXXXXXXXXXXXX"
};
