/* XPM */
static char *SwordSkelet_outline1[] = {
/* columns rows colors chars-per-pixel */
"32 32 3 1 ",
"  c black",
". c white",
"X c None",
/* pixels */
"XXXXXXXXXXXXXXXXXXXXXXXXXXXXXXXX",
"XXXXXXXXXXXXXXXXXXXXXXXXXXXXXXXX",
"XXXXXXXXXXXXXXXXXXXXXXXXXXXXXXXX",
"XXXXXXXXXXXXXXXXXXXXXXXXXXXXXXXX",
"XXXXXXXXXXXXXXXXXXXXXXXXXXXXXXXX",
"XXXXXXXXXXXXXXXXXXXXXXXXXXXXXXXX",
"XXXXXXXXXXXXXX....XXXXXXXXXXXXXX",
"XXXXXXXXXXXX..    ..XXX...XXXXXX",
"XXXXXXXXXXX.  ....  .X.   .XXXXX",
"XXXXXXXXXX. ........ .. .. .XXXX",
"XXXXXXXXX. .......... .  .. .XXX",
"XXXXXXXXX. .  ....  . .   .. .XX",
"XXXXXXX..  .   ..   .      . .XX",
"XXX....     ...  ...       . .XX",
"XX.           ....         . .XX",
"XX. ......   .    .        . .XX",
"XX. ...  .    ....     ...... .X",
"XX. ...  .                    .X",
"XX. ...  .              . .. .XX",
"XX. ...  .              .    .XX",
"XXX. .. .                 .. .XX",
"XXXX. ..                    .XXX",
"XXXXX.    ...      ...    ..XXXX",
"XXXXXX.  . . .    . . .  .XXXXXX",
"XXXXXXX..     ....     ..XXXXXXX",
"XXXXXXXXX.....XXXX.....XXXXXXXXX",
"XXXXXXXXXXXXXXXXXXXXXXXXXXXXXXXX",
"XXXXXXXXXXXXXXXXXXXXXXXXXXXXXXXX",
"XXXXXXXXXXXXXXXXXXXXXXXXXXXXXXXX",
"XXXXXXXXXXXXXXXXXXXXXXXXXXXXXXXX",
"XXXXXXXXXXXXXXXXXXXXXXXXXXXXXXXX",
"XXXXXXXXXXXXXXXXXXXXXXXXXXXXXXXX"
};
