/* XPM */
static char *SwordSkelet_outline2[] = {
/* columns rows colors chars-per-pixel */
"32 32 3 1 ",
"  c black",
". c white",
"X c None",
/* pixels */
"XXXXXXXXXXXXXXXXXXXXXXXXXXXXXXXX",
"XXXXXXXXXXXXXXXXXXXXXXXXXXXXXXXX",
"XXXXXXXXXXXXXXXXXXXXXXXXXXXXXXXX",
"XXXXXXXXXXXXXXXXXXXXXXXXXXXXXXXX",
"XXXXXXXXXXXXXXXXXXXXXXXXXXXXXXXX",
"XXXXXXXXXXXXXXXXXXXXXXXXXXXXXXXX",
"XXXXXXXXXXXXXX....XXXXXXXXXXXXXX",
"XXXXXXXXXXXX..    ..XX...XXXXXXX",
"XXXXXXXXXXX.  ....  ..   .XXXXXX",
"XXXXXXXXXX. ........ . .. .XXXXX",
"XXXXXXXXX. ..........   .. .XXXX",
"XXXXXXXXX. .  ....  .    .. .XXX",
"XXXXXXXXX. .   ..   .     . .XXX",
"XXXX.....   ...  ...      . .XXX",
"XXX.          ....        . .XXX",
"XXX. ......  .    .       . .XXX",
"XXX. ...  .  .    .   ...... .XX",
"XXX. ...  .   ....           .XX",
"XXX. ...  .            . .. .XXX",
"XXX. ...  .            .    .XXX",
"XXXX. .. .               .. .XXX",
"XXXXX. ..                  .XXXX",
"XXXXXX.   ...      ...   ..XXXXX",
"XXXXXXX. . . .    . . . .XXXXXXX",
"XXXXXXXX.     ....     .XXXXXXXX",
"XXXXXXXXX.....XXXX.....XXXXXXXXX",
"XXXXXXXXXXXXXXXXXXXXXXXXXXXXXXXX",
"XXXXXXXXXXXXXXXXXXXXXXXXXXXXXXXX",
"XXXXXXXXXXXXXXXXXXXXXXXXXXXXXXXX",
"XXXXXXXXXXXXXXXXXXXXXXXXXXXXXXXX",
"XXXXXXXXXXXXXXXXXXXXXXXXXXXXXXXX",
"XXXXXXXXXXXXXXXXXXXXXXXXXXXXXXXX"
};
