/* XPM */
static char *SwordSkelet3[] = {
/* columns rows colors chars-per-pixel */
"32 32 3 1 ",
"  c black",
". c white",
"X c None",
/* pixels */
"XXXXXXXXXXXXXXXXXXXXXXXXXXXXXXXX",
"XXXXXXXXXXXXXXXXXXXXXXXXXXXXXXXX",
"XXXXXXXXXXXXXXXXXXXXXXXXXXXXXXXX",
"XXXXXXXXXXXXXXXXXXXXXXXXXXXXXXXX",
"XXXXXXXXXXXXXXXXXXXXXXXXXXXXXXXX",
"XXXXXXXXXXXXXXXXXXXXXXXXXXXXXXXX",
"XXXXXXXXXXXXXXXXXXXXXXXXXXXXXXXX",
"XXXXXXXXXXXXXXXXXXXXXXXXXXXXXXXX",
"XXXXXXXXXXXXXX    XXX   XXXXXXXX",
"XXXXXXXXXXXX  ....  X .. XXXXXXX",
"XXXXXXXXXXX ........   .. XXXXXX",
"XXXXXXXXXX ..  ..  ..   .. XXXXX",
"XXXXXXXXXX .   ..   .    . XXXXX",
"XXXXXXXXXX .   ..   .    . XXXXX",
"XXXXXXXXX   ...  ...     . XXXXX",
"XXXXX         ....       . XXXXX",
"XXXXX ...... .    .  ...... XXXX",
"XXXXX ...  . .    .         XXXX",
"XXXXX ...  . .    .   . .. XXXXX",
"XXXXX ...  . .    .   .    XXXXX",
"XXXXX ...  .  ....      .. XXXXX",
"XXXXXX .. .               XXXXXX",
"XXXXXXX ..           .  XXXXXXXX",
"XXXXXXXX   .        . . XXXXXXXX",
"XXXXXXXXX              XXXXXXXXX",
"XXXXXXXXXXXXXXXXXXXXXXXXXXXXXXXX",
"XXXXXXXXXXXXXXXXXXXXXXXXXXXXXXXX",
"XXXXXXXXXXXXXXXXXXXXXXXXXXXXXXXX",
"XXXXXXXXXXXXXXXXXXXXXXXXXXXXXXXX",
"XXXXXXXXXXXXXXXXXXXXXXXXXXXXXXXX",
"XXXXXXXXXXXXXXXXXXXXXXXXXXXXXXXX",
"XXXXXXXXXXXXXXXXXXXXXXXXXXXXXXXX"
};
