/* XPM */
static char *SwordSkelet_outline3[] = {
/* columns rows colors chars-per-pixel */
"32 32 3 1 ",
"  c black",
". c white",
"X c None",
/* pixels */
"XXXXXXXXXXXXXXXXXXXXXXXXXXXXXXXX",
"XXXXXXXXXXXXXXXXXXXXXXXXXXXXXXXX",
"XXXXXXXXXXXXXXXXXXXXXXXXXXXXXXXX",
"XXXXXXXXXXXXXXXXXXXXXXXXXXXXXXXX",
"XXXXXXXXXXXXXXXXXXXXXXXXXXXXXXXX",
"XXXXXXXXXXXXXXXXXXXXXXXXXXXXXXXX",
"XXXXXXXXXXXXXXXXXXXXXXXXXXXXXXXX",
"XXXXXXXXXXXXXX....XXX...XXXXXXXX",
"XXXXXXXXXXXX..    ...   .XXXXXXX",
"XXXXXXXXXXX.  ....  . .. .XXXXXX",
"XXXXXXXXXX. ........   .. .XXXXX",
"XXXXXXXXX. ..  ..  ..   .. .XXXX",
"XXXXXXXXX. .   ..   .    . .XXXX",
"XXXXXXXXX. .   ..   .    . .XXXX",
"XXXXX....   ...  ...     . .XXXX",
"XXXX.         ....       . .XXXX",
"XXXX. ...... .    .  ...... .XXX",
"XXXX. ...  . .    .         .XXX",
"XXXX. ...  . .    .   . .. .XXXX",
"XXXX. ...  . .    .   .    .XXXX",
"XXXX. ...  .  ....      .. .XXXX",
"XXXXX. .. .               .XXXXX",
"XXXXXX. ..           .  ..XXXXXX",
"XXXXXXX.   .        . . .XXXXXXX",
"XXXXXXXX.              .XXXXXXXX",
"XXXXXXXXX..............XXXXXXXXX",
"XXXXXXXXXXXXXXXXXXXXXXXXXXXXXXXX",
"XXXXXXXXXXXXXXXXXXXXXXXXXXXXXXXX",
"XXXXXXXXXXXXXXXXXXXXXXXXXXXXXXXX",
"XXXXXXXXXXXXXXXXXXXXXXXXXXXXXXXX",
"XXXXXXXXXXXXXXXXXXXXXXXXXXXXXXXX",
"XXXXXXXXXXXXXXXXXXXXXXXXXXXXXXXX"
};
