/* XPM */
static char *SwordSkelet4[] = {
/* columns rows colors chars-per-pixel */
"32 32 3 1 ",
"  c black",
". c white",
"X c None",
/* pixels */
"XXXXXXXXXXXXXXXXXXXXXXXXXXXXXXXX",
"XXXXXXXXXXXXXXXXXXXXXXXXXXXXXXXX",
"XXXXXXXXXXXXXXXXXXXXXXXXXXXXXXXX",
"XXXXXXXXXXXXXXXXXXXXXXXXXXXXXXXX",
"XXXXXXXXXXXXXXXXXXXXXXXXXXXXXXXX",
"XXXXXXXXXXXXXXXXXXXXXXXXXXXXXXXX",
"XXXXXXXXXXXXXXXXXXXXXXXXXXXXXXXX",
"XXXXXXXXXXXXXXXXXXXXXXXXXXXXXXXX",
"XXXXXXXXXXXXXXXXXXXXXX   XXXXXXX",
"XXXXXXXXXXXXXX    XXXX .. XXXXXX",
"XXXXXXXXXXXX  ....  XX  .. XXXXX",
"XXXXXXXXXXX ........ X   .. XXXX",
"XXXXXXXXXX ..........     . XXXX",
"XXXXXXXX   .  ....  .     . XXXX",
"XXXXXXX    ..  ..  ..     . XXXX",
"XXXX        ...  ...      . XXXX",
"XXXX ......   ....    ...... XXX",
"XXXX ...  .   ....           XXX",
"XXXX ...  .            . .. XXXX",
"XXXX ...  .            .    XXXX",
"XXXX ...  .              .. XXXX",
"XXXXX .. .                 XXXXX",
"XXXXXX .. .          .   XXXXXXX",
"XXXXXXX  . . .    . . . XXXXXXXX",
"XXXXXXXXX     XXXX     XXXXXXXXX",
"XXXXXXXXXXXXXXXXXXXXXXXXXXXXXXXX",
"XXXXXXXXXXXXXXXXXXXXXXXXXXXXXXXX",
"XXXXXXXXXXXXXXXXXXXXXXXXXXXXXXXX",
"XXXXXXXXXXXXXXXXXXXXXXXXXXXXXXXX",
"XXXXXXXXXXXXXXXXXXXXXXXXXXXXXXXX",
"XXXXXXXXXXXXXXXXXXXXXXXXXXXXXXXX",
"XXXXXXXXXXXXXXXXXXXXXXXXXXXXXXXX"
};
