/* XPM */
static char *SwordSkelet_outline4[] = {
/* columns rows colors chars-per-pixel */
"32 32 3 1 ",
"  c black",
". c white",
"X c None",
/* pixels */
"XXXXXXXXXXXXXXXXXXXXXXXXXXXXXXXX",
"XXXXXXXXXXXXXXXXXXXXXXXXXXXXXXXX",
"XXXXXXXXXXXXXXXXXXXXXXXXXXXXXXXX",
"XXXXXXXXXXXXXXXXXXXXXXXXXXXXXXXX",
"XXXXXXXXXXXXXXXXXXXXXXXXXXXXXXXX",
"XXXXXXXXXXXXXXXXXXXXXXXXXXXXXXXX",
"XXXXXXXXXXXXXXXXXXXXXXXXXXXXXXXX",
"XXXXXXXXXXXXXXXXXXXXXX...XXXXXXX",
"XXXXXXXXXXXXXX....XXX.   .XXXXXX",
"XXXXXXXXXXXX..    ..X. .. .XXXXX",
"XXXXXXXXXXX.  ....  ..  .. .XXXX",
"XXXXXXXXXX. ........ .   .. .XXX",
"XXXXXXXX.. ..........     . .XXX",
"XXXXXXX.   .  ....  .     . .XXX",
"XXXX...    ..  ..  ..     . .XXX",
"XXX.        ...  ...      . .XXX",
"XXX. ......   ....    ...... .XX",
"XXX. ...  .   ....           .XX",
"XXX. ...  .            . .. .XXX",
"XXX. ...  .            .    .XXX",
"XXX. ...  .              .. .XXX",
"XXXX. .. .                 .XXXX",
"XXXXX. .. .          .   ..XXXXX",
"XXXXXX.  . . .    . . . .XXXXXXX",
"XXXXXXX..     ....     .XXXXXXXX",
"XXXXXXXXX.....XXXX.....XXXXXXXXX",
"XXXXXXXXXXXXXXXXXXXXXXXXXXXXXXXX",
"XXXXXXXXXXXXXXXXXXXXXXXXXXXXXXXX",
"XXXXXXXXXXXXXXXXXXXXXXXXXXXXXXXX",
"XXXXXXXXXXXXXXXXXXXXXXXXXXXXXXXX",
"XXXXXXXXXXXXXXXXXXXXXXXXXXXXXXXX",
"XXXXXXXXXXXXXXXXXXXXXXXXXXXXXXXX"
};
