/* XPM */
static char *SwordSkelet1[] = {
/* columns rows colors chars-per-pixel */
"32 32 3 1 ",
"  c black",
". c white",
"X c None",
/* pixels */
"XXXXXXXXXXXXXXXXXXXXXXXXXXXXXXXX",
"XXXXXXXXXXXXXXXXXXXXXXXXXXXXXXXX",
"XXXXXXXXXXXXXXXXXXXXXXXXXXXXXXXX",
"XXXXXXXXXXXXXXXXXXXXXXXXXXXXXXXX",
"XXXXXXXXXXXXXXXXXXXXXXXXXXXXXXXX",
"XXXXXXXXXXXXXXXXXXXXXXXXXXXXXXXX",
"XXXXXXXXXXXXXXXXXXXXXXXXXXXXXXXX",
"XXXXXXXXXXXXXX    XXXXXXXXXXXXXX",
"XXXXXXXXXXXX  ....  XXX   XXXXXX",
"XXXXXXXXXXX ........ XX .. XXXXX",
"XXXXXXXXXX .......... X  .. XXXX",
"XXXXXXXXXX .  ....  . X   .. XXX",
"XXXXXXXXX  .   ..   .      . XXX",
"XXXXXXX     ...  ...       . XXX",
"XXX           ....         . XXX",
"XXX ......   .    .        . XXX",
"XXX ...  .    ....     ...... XX",
"XXX ...  .                    XX",
"XXX ...  .              . .. XXX",
"XXX ...  .              .    XXX",
"XXXX .. .                 .. XXX",
"XXXXX ..                    XXXX",
"XXXXXX    ...      ...    XXXXXX",
"XXXXXXX  . . .    . . .  XXXXXXX",
"XXXXXXXXX     XXXX     XXXXXXXXX",
"XXXXXXXXXXXXXXXXXXXXXXXXXXXXXXXX",
"XXXXXXXXXXXXXXXXXXXXXXXXXXXXXXXX",
"XXXXXXXXXXXXXXXXXXXXXXXXXXXXXXXX",
"XXXXXXXXXXXXXXXXXXXXXXXXXXXXXXXX",
"XXXXXXXXXXXXXXXXXXXXXXXXXXXXXXXX",
"XXXXXXXXXXXXXXXXXXXXXXXXXXXXXXXX",
"XXXXXXXXXXXXXXXXXXXXXXXXXXXXXXXX"
};
