/* XPM */
static char *tileset_1bit_9_png[] = {
/* columns rows colors chars-per-pixel */
"16 16 2 1 ",
"  c black",
". c white",
/* pixels */
"................",
"................",
"............... ",
"............    ",
"..........   . .",
"........    . . ",
"........ . . . .",
"....      . . . ",
"...  . . . .....",
"... . . . . . . ",
".. . . . . . . .",
"..  . ..... . . ",
".. . . . . . ...",
"..  . . . . . . ",
"..   . . . . . .",
"..  . . . . . . "
};
